<svg width="33" height="28" viewBox="0 0 33 28" fill="none" xmlns="http://www.w3.org/2000/svg">
<path d="M30.6579 13.8129C30.6579 20.4845 24.2555 25.8992 16.3509 25.8992C8.44631 25.8992 2.04395 20.4845 2.04395 13.8129C2.04395 7.13519 8.44631 1.72656 16.3509 1.72656C24.2555 1.72656 30.6579 7.13519 30.6579 13.8129Z" fill="#283544"/>
<path d="M23.0567 10.7546C22.9787 10.7931 21.1202 11.6051 21.1202 13.4054C21.2078 15.4585 23.4655 16.1786 23.5042 16.1786C23.4655 16.217 23.1634 17.1594 22.2684 18.1473C21.5581 18.9982 20.7698 19.8562 19.5727 19.8562C18.4339 19.8562 18.0252 19.289 16.7113 19.289C15.3002 19.289 14.901 19.8562 13.8207 19.8562C12.6235 19.8562 11.7768 18.9523 11.0278 18.1093C10.0548 17.006 9.2277 15.2747 9.1985 13.6123C9.17882 12.7313 9.39336 11.8654 9.93797 11.1299C10.7066 10.1031 12.0789 9.40601 13.5776 9.38302C14.7258 9.35254 15.7477 10.0036 16.4485 10.0036C17.12 10.0036 18.3755 9.38302 19.7961 9.38302C20.4093 9.38352 22.0443 9.52893 23.0567 10.7546ZM16.3514 9.20714C16.147 8.40267 16.7113 7.59819 17.2368 7.08503C17.9084 6.46444 18.969 6.04321 19.8837 6.04321C19.9421 6.84769 19.572 7.63667 18.9106 8.21129C18.3172 8.83189 17.2952 9.29908 16.3514 9.20714Z" fill="white"/>
</svg>
