<svg width="31" height="31" viewBox="0 0 31 31" fill="none" xmlns="http://www.w3.org/2000/svg">
<g clip-path="url(#clip0_327_1620)">
<path d="M15.2733 3.65624C19.2783 3.65624 19.7533 3.67124 21.3345 3.74374C22.9695 3.81874 24.6533 4.19124 25.8445 5.38249C27.047 6.58499 27.4083 8.25249 27.4833 9.89249C27.5558 11.4737 27.5708 11.9487 27.5708 15.9537C27.5708 19.9587 27.5558 20.4337 27.4833 22.015C27.4095 23.6412 27.0283 25.3412 25.8445 26.525C24.642 27.7275 22.9758 28.0887 21.3345 28.1637C19.7533 28.2362 19.2783 28.2512 15.2733 28.2512C11.2683 28.2512 10.7933 28.2362 9.212 28.1637C7.59825 28.09 5.87575 27.7 4.702 26.525C3.50575 25.3287 3.13825 23.645 3.06325 22.015C2.99075 20.4337 2.97575 19.9587 2.97575 15.9537C2.97575 11.9487 2.99075 11.4737 3.06325 9.89249C3.137 8.27249 3.522 6.56249 4.702 5.38249C5.902 4.18249 7.57575 3.81874 9.212 3.74374C10.7933 3.67124 11.2683 3.65624 15.2733 3.65624ZM15.2733 0.953735C11.1995 0.953735 10.6883 0.971235 9.08825 1.04374C6.7695 1.14999 4.467 1.79499 2.79075 3.47124C1.10825 5.15374 0.469504 7.45124 0.363254 9.76874C0.290754 11.3687 0.273254 11.88 0.273254 15.9537C0.273254 20.0275 0.290754 20.5387 0.363254 22.1387C0.469504 24.455 1.117 26.7637 2.79075 28.4362C4.472 30.1175 6.77325 30.7575 9.08825 30.8637C10.6883 30.9362 11.1995 30.9537 15.2733 30.9537C19.347 30.9537 19.8583 30.9362 21.4583 30.8637C23.7758 30.7575 26.0808 30.1112 27.7558 28.4362C29.4395 26.7525 30.077 24.4562 30.1833 22.1387C30.2558 20.5387 30.2733 20.0275 30.2733 15.9537C30.2733 11.88 30.2558 11.3687 30.1833 9.76874C30.077 7.44999 29.4308 5.14624 27.7558 3.47124C26.077 1.79249 23.7695 1.14874 21.4583 1.04374C19.8583 0.971235 19.347 0.953735 15.2733 0.953735Z" fill="white"/>
<path d="M15.2732 8.25122C11.0195 8.25122 7.57074 11.7 7.57074 15.9537C7.57074 20.2075 11.0195 23.6562 15.2732 23.6562C19.527 23.6562 22.9757 20.2075 22.9757 15.9537C22.9757 11.7 19.527 8.25122 15.2732 8.25122ZM15.2732 20.9537C12.512 20.9537 10.2732 18.715 10.2732 15.9537C10.2732 13.1925 12.512 10.9537 15.2732 10.9537C18.0345 10.9537 20.2732 13.1925 20.2732 15.9537C20.2732 18.715 18.0345 20.9537 15.2732 20.9537Z" fill="white"/>
<path d="M23.2808 9.74624C24.2749 9.74624 25.0808 8.94035 25.0808 7.94624C25.0808 6.95213 24.2749 6.14624 23.2808 6.14624C22.2867 6.14624 21.4808 6.95213 21.4808 7.94624C21.4808 8.94035 22.2867 9.74624 23.2808 9.74624Z" fill="white"/>
</g>
<defs>
<clipPath id="clip0_327_1620">
<rect width="30" height="30" fill="white" transform="translate(0.273254 0.953735)"/>
</clipPath>
</defs>
</svg>
