<svg width="25" height="19" viewBox="0 0 25 19" fill="none" xmlns="http://www.w3.org/2000/svg">
<path d="M12.5 14.1875C11.6929 14.1875 10.8857 13.9228 10.1973 13.3862L0 5.45703V16.5312C0 17.8252 1.04932 18.875 2.34375 18.875H22.6562C23.9507 18.875 25 17.8257 25 16.5312V5.45703L14.8047 13.3916C14.1162 13.9238 13.3057 14.1875 12.5 14.1875ZM0.79541 4.09473L11.1567 12.1562C11.9473 12.7715 13.0547 12.7715 13.8452 12.1562L24.2065 4.09473C24.6631 3.7041 25 3.10352 25 2.46875C25 1.17432 23.9502 0.125 22.6562 0.125H2.34375C1.04932 0.125 0 1.17432 0 2.46875C0 3.10352 0.293457 3.7041 0.79541 4.09473Z" fill="white"/>
</svg>
