<svg width="31" height="31" viewBox="0 0 31 31" fill="none" xmlns="http://www.w3.org/2000/svg">
<path d="M15.2733 0.953735C6.98837 0.953735 0.273254 7.66885 0.273254 15.9537C0.273254 24.2386 6.98837 30.9537 15.2733 30.9537C23.5581 30.9537 30.2733 24.2386 30.2733 15.9537C30.2733 7.66885 23.5581 0.953735 15.2733 0.953735ZM10.7035 23.82H7.04942V12.0729H10.7035V23.82ZM8.87209 10.4595C7.70349 10.4595 6.75291 9.50897 6.75291 8.34036C6.75291 7.17176 7.70349 6.22118 8.87209 6.22118C10.0407 6.22118 10.9913 7.17176 10.9913 8.34036C10.9913 9.50897 10.0407 10.4595 8.87209 10.4595ZM24.3692 23.82H20.7238V18.1078C20.7238 16.7473 20.6977 14.9944 18.8227 14.9944C16.9215 14.9944 16.6337 16.477 16.6337 18.0119V23.8287H12.9884V12.0729H16.4942V13.6776H16.5378C17.2529 12.4566 18.5785 11.7241 19.9913 11.7764C23.689 11.7764 24.3692 14.2095 24.3692 17.3752V23.82Z" fill="white"/>
</svg>
